<svg viewBox="0 0 1131 995" fill="none" xmlns="http://www.w3.org/2000/svg">
<path fill-rule="evenodd" clip-rule="evenodd" d="M58.736 313C18.747 313 -1.24745 313 -17.0194 306.467C-38.0487 297.756 -54.7564 281.049 -63.467 260.019C-70 244.247 -70 224.253 -70 184.264V136.736C-70 96.747 -70 76.7525 -63.467 60.9806C-54.7564 39.9513 -38.0487 23.2436 -17.0194 14.533C-1.24745 8 18.747 8 58.736 8H972.264C1012.25 8 1032.25 8 1048.02 14.533C1069.05 23.2436 1085.76 39.9513 1094.47 60.9806C1101 76.7525 1101 96.747 1101 136.736V184.264C1101 224.253 1101 244.247 1094.47 260.019C1085.76 281.049 1069.05 297.756 1048.02 306.467C1032.25 313 1012.25 313 972.264 313H58.736Z" fill="#DE3249"/>
<path fill-rule="evenodd" clip-rule="evenodd" d="M88.736 653C48.747 653 28.7525 653 12.9806 646.467C-8.04871 637.756 -24.7564 621.049 -33.467 600.019C-40 584.247 -40 564.253 -40 524.264V476.736C-40 436.747 -40 416.753 -33.467 400.981C-24.7564 379.951 -8.04871 363.244 12.9806 354.533C28.7525 348 48.747 348 88.736 348H1002.26C1042.25 348 1062.25 348 1078.02 354.533C1099.05 363.244 1115.76 379.951 1124.47 400.981C1131 416.753 1131 436.747 1131 476.736V524.264C1131 564.253 1131 584.247 1124.47 600.019C1115.76 621.049 1099.05 637.756 1078.02 646.467C1062.25 653 1042.25 653 1002.26 653H88.736Z" fill="#DE3249"/>
<path fill-rule="evenodd" clip-rule="evenodd" d="M98.736 995C58.747 995 38.7525 995 22.9806 988.467C1.95129 979.756 -14.7564 963.049 -23.467 942.019C-30 926.247 -30 906.253 -30 866.264V824.736C-30 784.747 -30 764.753 -23.467 748.981C-14.7564 727.951 1.95129 711.244 22.9806 702.533C38.7525 696 58.747 696 98.736 696H495.264C535.253 696 555.247 696 571.019 702.533C592.049 711.244 608.756 727.951 617.467 748.981C624 764.753 624 784.747 624 824.736V866.264C624 906.253 624 926.247 617.467 942.019C608.756 963.049 592.049 979.756 571.019 988.467C555.247 995 535.253 995 495.264 995H98.736Z" fill="#DE3249"/>
<path d="M132.216 274.032C112.248 274.032 93.912 269.04 77.208 259.056C60.696 249.072 47.64 235.536 38.04 218.448C28.44 201.36 23.64 182.736 23.64 162.576C23.64 142.608 28.536 124.08 38.328 106.992C48.312 89.904 61.656 76.368 78.36 66.384C95.064 56.208 113.016 51.12 132.216 51.12C140.28 51.12 147 51.6 152.376 52.56C157.752 53.52 163.608 54.96 169.944 56.88C176.856 59.184 182.808 60.336 187.8 60.336C188.76 60.336 190.776 60.144 193.848 59.76C200.184 58.8 204.888 58.32 207.96 58.32C212.568 58.32 215.736 59.28 217.464 61.2C219.384 63.12 220.344 66.48 220.344 71.28C220.344 77.808 219.192 87.6 216.888 100.656C214.584 113.712 212.28 121.776 209.976 124.848C206.904 128.88 203.448 130.896 199.608 130.896C194.232 130.896 188.856 126.672 183.48 118.224C175.608 105.552 166.968 96.048 157.56 89.712C148.152 83.184 137.112 79.92 124.44 79.92C113.304 79.92 103.32 82.8 94.488 88.56C85.848 94.32 79.032 102.096 74.04 111.888C69.24 121.68 66.84 132.432 66.84 144.144C66.84 159.696 70.392 174 77.496 187.056C84.792 199.92 94.68 210.192 107.16 217.872C119.64 225.36 133.56 229.104 148.92 229.104C161.784 229.104 173.304 226.128 183.48 220.176C193.848 214.224 202.488 206.256 209.4 196.272C212.472 192.048 214.968 188.976 216.888 187.056C218.808 185.136 220.824 184.176 222.936 184.176C224.28 184.176 225.624 184.464 226.968 185.04C229.08 186.192 230.136 188.592 230.136 192.24C230.136 195.504 229.272 199.344 227.544 203.76C219.096 224.688 207.096 241.68 191.544 254.736C175.992 267.6 156.216 274.032 132.216 274.032ZM473.093 270C459.845 270 448.997 263.952 440.549 251.856C432.101 239.76 426.533 222.48 423.845 200.016C423.653 197.712 422.885 196.56 421.541 196.56C421.157 196.56 420.581 196.848 419.813 197.424C419.237 198 418.757 198.864 418.373 200.016C412.037 214.032 402.725 226.8 390.437 238.32C378.149 249.648 364.805 258.576 350.405 265.104C336.197 271.44 323.333 274.608 311.813 274.608C302.789 274.608 295.493 272.592 289.925 268.56C281.669 262.224 277.541 253.104 277.541 241.2C277.541 228.144 282.053 213.072 291.077 195.984C300.293 178.896 312.773 162.192 328.517 145.872C344.261 129.552 361.541 115.92 380.357 104.976C382.661 103.44 383.813 102.096 383.813 100.944C383.813 99.408 382.661 98.064 380.357 96.912C375.365 94.032 368.933 91.824 361.061 90.288C353.189 88.752 345.125 87.984 336.869 87.984C330.149 87.984 323.237 88.656 316.133 90C314.597 90.384 312.485 90.576 309.797 90.576C304.805 90.576 300.677 89.52 297.413 87.408C294.149 85.104 292.517 82.032 292.517 78.192C292.517 74.544 294.245 70.8 297.701 66.96C301.349 63.12 307.109 59.856 314.981 57.168C322.853 54.48 332.837 53.136 344.933 53.136C362.213 53.136 376.613 55.056 388.133 58.896C399.653 62.544 410.501 68.784 420.677 77.616C422.213 78.96 423.557 79.632 424.709 79.632C425.669 79.632 426.917 79.152 428.453 78.192C437.669 72.432 445.637 68.016 452.357 64.944C459.269 61.872 465.221 60.336 470.213 60.336C474.437 60.336 477.893 61.584 480.581 64.08C484.229 67.536 486.053 71.088 486.053 74.736C486.053 77.808 485.189 81.072 483.461 84.528C481.733 87.792 478.757 92.496 474.533 98.64L468.197 108.432C459.749 122.256 455.525 136.656 455.525 151.632C455.525 163.92 458.405 176.496 464.165 189.36C468.197 198.384 472.133 206.16 475.973 212.688C480.005 219.216 484.421 225.744 489.221 232.272C492.293 236.688 494.501 240.048 495.845 242.352C497.189 244.656 497.861 246.768 497.861 248.688C497.861 254.064 495.653 258.96 491.237 263.376C486.821 267.792 480.773 270 473.093 270ZM330.821 224.208C332.741 225.552 335.141 226.224 338.021 226.224C344.549 226.224 352.325 223.056 361.349 216.72C370.565 210.192 379.205 201.456 387.269 190.512C402.053 170.352 409.445 152.88 409.445 138.096C409.445 132.72 408.389 127.728 406.277 123.12C405.125 121.008 403.877 119.952 402.533 119.952C401.573 119.952 400.229 120.528 398.501 121.68C380.837 133.008 365.381 146.832 352.133 163.152C343.685 173.712 337.253 183.408 332.837 192.24C328.421 200.88 326.213 208.08 326.213 213.84C326.213 218.448 327.749 221.904 330.821 224.208ZM715.9 271.728C712.252 271.728 701.596 271.344 683.932 270.576C656.668 269.616 640.828 269.136 636.412 269.136C630.652 269.136 617.692 269.616 597.532 270.576C593.692 270.768 589.66 270.96 585.436 271.152C581.404 271.344 577.276 271.44 573.052 271.44C567.676 271.44 563.356 270.288 560.092 267.984C557.02 265.68 555.484 262.608 555.484 258.768C555.484 255.312 556.156 252.72 557.5 250.992C558.844 249.072 561.052 246.96 564.124 244.656C567.004 242.544 569.404 240.624 571.324 238.896C573.436 237.168 575.548 234.864 577.66 231.984C580.924 227.568 583.228 220.656 584.572 211.248C585.916 201.84 586.588 190.32 586.588 176.688V148.752C586.588 135.12 585.916 123.6 584.572 114.192C583.228 104.784 580.924 97.872 577.66 93.456C574.972 90 570.94 85.584 565.564 80.208C562.876 77.52 560.956 75.504 559.804 74.16C558.844 72.624 558.364 70.512 558.364 67.824C558.364 63.6 559.9 60.24 562.972 57.744C566.236 55.248 570.556 54 575.932 54C578.428 54 580.828 54.096 583.132 54.288C585.436 54.48 587.452 54.672 589.18 54.864C595.516 55.824 601.66 56.304 607.612 56.304C611.836 56.304 617.212 55.92 623.74 55.152C630.268 54.384 635.452 54 639.292 54C644.668 54 648.892 55.248 651.964 57.744C655.228 60.24 656.86 63.6 656.86 67.824C656.86 70.512 656.284 72.624 655.132 74.16C654.172 75.504 652.348 77.52 649.66 80.208C644.284 85.584 640.252 90 637.564 93.456C634.3 97.872 631.996 104.784 630.652 114.192C629.308 123.6 628.636 135.12 628.636 148.752V193.968C628.636 205.488 629.116 214.704 630.076 221.616C631.228 228.336 633.82 233.808 637.852 238.032C641.884 242.064 648.124 244.08 656.572 244.08C667.708 244.08 677.308 240.816 685.372 234.288C693.436 227.568 701.884 216.624 710.716 201.456C715.9 192.432 720.124 186.192 723.388 182.736C726.844 179.088 730.78 177.744 735.196 178.704C739.036 179.472 741.916 183.216 743.836 189.936C745.756 196.656 746.716 205.2 746.716 215.568C746.716 219.6 746.332 226.032 745.564 234.864C744.22 248.112 740.956 257.616 735.772 263.376C730.78 268.944 724.156 271.728 715.9 271.728ZM901.412 274.032C881.444 274.032 863.108 269.04 846.404 259.056C829.892 249.072 816.836 235.536 807.236 218.448C797.636 201.36 792.836 182.736 792.836 162.576C792.836 142.608 797.732 124.08 807.524 106.992C817.508 89.904 830.852 76.368 847.556 66.384C864.26 56.208 882.212 51.12 901.412 51.12C909.476 51.12 916.196 51.6 921.572 52.56C926.948 53.52 932.804 54.96 939.14 56.88C946.052 59.184 952.004 60.336 956.996 60.336C957.956 60.336 959.972 60.144 963.044 59.76C969.38 58.8 974.084 58.32 977.156 58.32C981.764 58.32 984.932 59.28 986.66 61.2C988.58 63.12 989.54 66.48 989.54 71.28C989.54 77.808 988.388 87.6 986.084 100.656C983.78 113.712 981.476 121.776 979.172 124.848C976.1 128.88 972.644 130.896 968.804 130.896C963.428 130.896 958.052 126.672 952.676 118.224C944.804 105.552 936.164 96.048 926.756 89.712C917.348 83.184 906.308 79.92 893.636 79.92C882.5 79.92 872.516 82.8 863.684 88.56C855.044 94.32 848.228 102.096 843.236 111.888C838.436 121.68 836.036 132.432 836.036 144.144C836.036 159.696 839.588 174 846.692 187.056C853.988 199.92 863.876 210.192 876.356 217.872C888.836 225.36 902.756 229.104 918.116 229.104C930.98 229.104 942.5 226.128 952.676 220.176C963.044 214.224 971.684 206.256 978.596 196.272C981.668 192.048 984.164 188.976 986.084 187.056C988.004 185.136 990.02 184.176 992.132 184.176C993.476 184.176 994.82 184.464 996.164 185.04C998.276 186.192 999.332 188.592 999.332 192.24C999.332 195.504 998.468 199.344 996.74 203.76C988.292 224.688 976.292 241.68 960.74 254.736C945.188 267.6 925.412 274.032 901.412 274.032ZM148.344 618.88C115.704 618.88 91.32 611.584 75.192 596.992C59.256 582.208 51.288 561.952 51.288 536.224C51.288 530.272 51.48 525.76 51.864 522.688C53.976 502.72 55.032 487.36 55.032 476.608C55.032 467.776 54.264 460.48 52.728 454.72C51.384 448.768 49.08 443.68 45.816 439.456C43.128 436 39.096 431.584 33.72 426.208C31.032 423.52 29.112 421.504 27.96 420.16C27 418.624 26.52 416.512 26.52 413.824C26.52 409.6 28.056 406.24 31.128 403.744C34.392 401.248 38.712 400 44.088 400C46.584 400 48.984 400.096 51.288 400.288C53.592 400.48 55.608 400.672 57.336 400.864C63.672 401.824 69.816 402.304 75.768 402.304C79.992 402.304 85.368 401.92 91.896 401.152C98.424 400.384 103.608 400 107.448 400C112.824 400 117.048 401.248 120.12 403.744C123.384 406.24 125.016 409.6 125.016 413.824C125.016 416.512 124.44 418.624 123.288 420.16C122.328 421.504 120.504 423.52 117.816 426.208C112.44 431.584 108.408 436 105.72 439.456C102.072 444.256 99.672 451.84 98.52 462.208C97.368 472.384 96.792 489.664 96.792 514.048C96.792 540.16 100.728 559.168 108.6 571.072C116.664 582.976 129.912 588.928 148.344 588.928C166.584 588.928 179.64 582.976 187.512 571.072C195.384 558.976 199.32 539.968 199.32 514.048C199.32 489.472 198.744 472.096 197.592 461.92C196.44 451.744 194.04 444.256 190.392 439.456C187.704 436 183.672 431.584 178.296 426.208C175.608 423.52 173.688 421.504 172.536 420.16C171.576 418.624 171.096 416.512 171.096 413.824C171.096 409.6 172.632 406.24 175.704 403.744C178.968 401.248 183.288 400 188.664 400C191.16 400 193.56 400.096 195.864 400.288C198.168 400.48 200.184 400.672 201.912 400.864C208.248 401.824 214.392 402.304 220.344 402.304C224.568 402.304 229.944 401.92 236.472 401.152C243 400.384 248.184 400 252.024 400C257.4 400 261.624 401.248 264.696 403.744C267.96 406.24 269.592 409.6 269.592 413.824C269.592 416.512 269.016 418.624 267.864 420.16C266.904 421.504 265.08 423.52 262.392 426.208C257.016 431.584 252.984 436 250.296 439.456C247.032 443.872 244.632 449.056 243.096 455.008C241.752 460.768 241.08 467.968 241.08 476.608C241.08 487.36 242.136 502.72 244.248 522.688C244.824 527.296 245.112 531.904 245.112 536.512C245.112 562.048 237.048 582.208 220.92 596.992C204.984 611.584 180.792 618.88 148.344 618.88ZM490.439 617.728C486.791 617.728 476.135 617.344 458.471 616.576C431.207 615.616 415.366 615.136 410.95 615.136C405.19 615.136 392.23 615.616 372.07 616.576C368.23 616.768 364.198 616.96 359.974 617.152C355.942 617.344 351.814 617.44 347.59 617.44C342.214 617.44 337.894 616.288 334.63 613.984C331.558 611.68 330.022 608.608 330.022 604.768C330.022 601.312 330.694 598.72 332.038 596.992C333.382 595.072 335.59 592.96 338.662 590.656C341.542 588.544 343.942 586.624 345.862 584.896C347.974 583.168 350.086 580.864 352.198 577.984C355.462 573.568 357.766 566.656 359.11 557.248C360.454 547.84 361.126 536.32 361.126 522.688V494.752C361.126 481.12 360.454 469.6 359.11 460.192C357.766 450.784 355.462 443.872 352.198 439.456C349.51 436 345.478 431.584 340.102 426.208C337.414 423.52 335.494 421.504 334.342 420.16C333.382 418.624 332.902 416.512 332.902 413.824C332.902 409.6 334.438 406.24 337.51 403.744C340.774 401.248 345.094 400 350.47 400C352.966 400 355.366 400.096 357.67 400.288C359.974 400.48 361.99 400.672 363.718 400.864C370.054 401.824 376.198 402.304 382.15 402.304C386.374 402.304 391.75 401.92 398.278 401.152C404.807 400.384 409.99 400 413.83 400C419.206 400 423.43 401.248 426.502 403.744C429.766 406.24 431.399 409.6 431.399 413.824C431.399 416.512 430.823 418.624 429.67 420.16C428.71 421.504 426.886 423.52 424.198 426.208C418.823 431.584 414.791 436 412.103 439.456C408.838 443.872 406.534 450.784 405.19 460.192C403.846 469.6 403.174 481.12 403.174 494.752V539.968C403.174 551.488 403.654 560.704 404.614 567.616C405.766 574.336 408.358 579.808 412.39 584.032C416.422 588.064 422.662 590.08 431.11 590.08C442.246 590.08 451.846 586.816 459.911 580.288C467.975 573.568 476.423 562.624 485.255 547.456C490.439 538.432 494.663 532.192 497.926 528.736C501.382 525.088 505.318 523.744 509.734 524.704C513.575 525.472 516.455 529.216 518.375 535.936C520.295 542.656 521.255 551.2 521.255 561.568C521.255 565.6 520.871 572.032 520.103 580.864C518.759 594.112 515.495 603.616 510.311 609.376C505.319 614.944 498.695 617.728 490.439 617.728ZM764.367 616C751.119 616 740.271 609.952 731.823 597.856C723.375 585.76 717.807 568.48 715.119 546.016C714.927 543.712 714.159 542.56 712.815 542.56C712.431 542.56 711.855 542.848 711.087 543.424C710.511 544 710.031 544.864 709.647 546.016C703.311 560.032 693.999 572.8 681.711 584.32C669.423 595.648 656.079 604.576 641.679 611.104C627.471 617.44 614.607 620.608 603.087 620.608C594.063 620.608 586.767 618.592 581.199 614.56C572.943 608.224 568.815 599.104 568.815 587.2C568.815 574.144 573.327 559.072 582.351 541.984C591.567 524.896 604.047 508.192 619.791 491.872C635.535 475.552 652.815 461.92 671.631 450.976C673.935 449.44 675.087 448.096 675.087 446.944C675.087 445.408 673.935 444.064 671.631 442.912C666.639 440.032 660.207 437.824 652.335 436.288C644.463 434.752 636.399 433.984 628.143 433.984C621.423 433.984 614.511 434.656 607.407 436C605.871 436.384 603.759 436.576 601.071 436.576C596.079 436.576 591.951 435.52 588.687 433.408C585.423 431.104 583.791 428.032 583.791 424.192C583.791 420.544 585.519 416.8 588.975 412.96C592.623 409.12 598.383 405.856 606.255 403.168C614.127 400.48 624.111 399.136 636.207 399.136C653.487 399.136 667.887 401.056 679.407 404.896C690.927 408.544 701.775 414.784 711.951 423.616C713.487 424.96 714.831 425.632 715.983 425.632C716.943 425.632 718.191 425.152 719.727 424.192C728.943 418.432 736.911 414.016 743.631 410.944C750.543 407.872 756.495 406.336 761.487 406.336C765.711 406.336 769.167 407.584 771.855 410.08C775.503 413.536 777.327 417.088 777.327 420.736C777.327 423.808 776.463 427.072 774.735 430.528C773.007 433.792 770.031 438.496 765.807 444.64L759.471 454.432C751.023 468.256 746.799 482.656 746.799 497.632C746.799 509.92 749.679 522.496 755.439 535.36C759.471 544.384 763.407 552.16 767.247 558.688C771.279 565.216 775.695 571.744 780.495 578.272C783.567 582.688 785.775 586.048 787.119 588.352C788.463 590.656 789.135 592.768 789.135 594.688C789.135 600.064 786.927 604.96 782.511 609.376C778.095 613.792 772.047 616 764.367 616ZM622.095 570.208C624.015 571.552 626.415 572.224 629.295 572.224C635.823 572.224 643.599 569.056 652.623 562.72C661.839 556.192 670.479 547.456 678.543 536.512C693.327 516.352 700.719 498.88 700.719 484.096C700.719 478.72 699.663 473.728 697.551 469.12C696.399 467.008 695.151 465.952 693.807 465.952C692.847 465.952 691.503 466.528 689.775 467.68C672.111 479.008 656.655 492.832 643.407 509.152C634.959 519.712 628.527 529.408 624.111 538.24C619.695 546.88 617.487 554.08 617.487 559.84C617.487 564.448 619.023 567.904 622.095 570.208ZM901.189 617.44C895.237 617.44 890.821 616.192 887.941 613.696C885.061 611.2 883.621 608.224 883.621 604.768C883.621 601.312 884.293 598.72 885.637 596.992C886.981 595.072 889.189 592.96 892.261 590.656C895.141 588.544 897.541 586.624 899.461 584.896C901.573 583.168 903.685 580.864 905.797 577.984C909.061 573.568 911.365 566.656 912.709 557.248C914.053 547.84 914.725 536.32 914.725 522.688L915.013 458.176C915.013 441.856 907.525 433.696 892.549 433.696C885.445 433.696 879.397 435.328 874.405 438.592C869.413 441.664 864.613 447.52 860.005 456.16C859.429 457.312 857.797 460.48 855.109 465.664C852.421 470.848 849.829 474.304 847.333 476.032C845.029 477.568 842.341 478.24 839.269 478.048C835.813 477.856 833.317 475.744 831.781 471.712C830.245 467.488 829.477 461.632 829.477 454.144C829.477 448.192 829.957 440.608 830.917 431.392C832.453 417.952 835.333 408.448 839.557 402.88C843.781 397.312 849.829 394.528 857.701 394.528C861.541 394.528 868.165 395.584 877.573 397.696C887.173 399.808 896.293 401.44 904.933 402.592C913.765 403.744 924.229 404.32 936.325 404.32C948.421 404.32 958.789 403.744 967.429 402.592C976.261 401.44 985.477 399.808 995.077 397.696C1004.68 395.584 1011.3 394.528 1014.95 394.528C1022.82 394.528 1028.87 397.312 1033.09 402.88C1037.32 408.448 1040.2 417.952 1041.73 431.392C1042.69 440.608 1043.17 448.192 1043.17 454.144C1043.17 461.632 1042.41 467.488 1040.87 471.712C1039.33 475.744 1036.84 477.856 1033.38 478.048C1030.31 478.24 1027.72 477.664 1025.61 476.32C1023.69 474.784 1021.96 472.768 1020.42 470.272C1018.89 467.776 1016.29 463.072 1012.65 456.16C1007.85 447.328 1002.85 441.376 997.669 438.304C992.677 435.232 986.341 433.696 978.661 433.696C963.877 433.696 956.485 441.856 956.485 458.176L956.773 522.688C956.773 536.32 957.445 547.84 958.789 557.248C960.133 566.656 962.437 573.568 965.701 577.984C967.813 580.864 969.829 583.168 971.749 584.896C973.861 586.624 976.357 588.544 979.237 590.656C982.309 592.96 984.517 595.072 985.861 596.992C987.205 598.72 987.877 601.312 987.877 604.768C987.877 608.224 986.437 611.2 983.557 613.696C980.677 616.192 976.261 617.44 970.309 617.44C966.469 617.44 960.709 617.248 953.029 616.864C947.269 616.288 941.509 616 935.749 616L924.229 616.576C911.557 617.152 903.877 617.44 901.189 617.44ZM142.008 966.032C120.312 966.032 100.44 961.232 82.392 951.632C64.344 941.84 50.04 928.496 39.48 911.6C28.92 894.512 23.64 875.504 23.64 854.576C23.64 834.416 28.92 815.792 39.48 798.704C50.04 781.616 64.344 768.08 82.392 758.096C100.632 748.112 120.504 743.12 142.008 743.12C163.704 743.12 183.576 748.016 201.624 757.808C219.672 767.408 233.976 780.752 244.536 797.84C255.096 814.736 260.376 833.648 260.376 854.576C260.376 874.736 255.096 893.36 244.536 910.448C233.976 927.536 219.576 941.072 201.336 951.056C183.288 961.04 163.512 966.032 142.008 966.032ZM77.208 831.824C77.208 847.952 80.28 863.696 86.424 879.056C92.76 894.416 101.592 906.992 112.92 916.784C124.44 926.384 137.4 931.184 151.8 931.184C162.552 931.184 172.056 928.592 180.312 923.408C188.76 918.224 195.288 911.12 199.896 902.096C204.504 892.88 206.808 882.608 206.808 871.28C206.808 855.152 203.64 839.408 197.304 824.048C191.16 808.688 182.328 796.208 170.808 786.608C159.48 777.008 146.616 772.208 132.216 772.208C121.464 772.208 111.864 774.8 103.416 779.984C95.16 785.168 88.728 792.272 84.12 801.296C79.512 810.32 77.208 820.496 77.208 831.824ZM491.017 963.728C480.073 963.728 471.145 961.616 464.233 957.392C457.513 952.976 452.233 947.6 448.393 941.264C444.745 934.928 440.809 926.576 436.585 916.208C432.169 905.456 428.041 897.104 424.201 891.152C420.553 885.2 415.561 880.592 409.225 877.328C404.617 875.216 401.161 874.16 398.857 874.16C393.865 874.16 391.369 878.192 391.369 886.256C391.369 892.784 392.041 899.792 393.385 907.28C394.921 914.576 397.129 920.144 400.009 923.984C402.121 926.864 404.137 929.168 406.057 930.896C408.169 932.624 410.665 934.544 413.545 936.656C416.617 938.96 418.825 941.072 420.169 942.992C421.513 944.72 422.185 947.312 422.185 950.768C422.185 954.608 420.553 957.68 417.289 959.984C414.217 962.288 409.993 963.44 404.617 963.44C400.777 963.44 395.209 963.056 387.913 962.288C380.233 961.52 374.281 961.136 370.057 961.136C366.217 961.136 361.033 961.52 354.505 962.288C347.209 963.056 340.873 963.44 335.497 963.44C330.121 963.44 325.801 962.288 322.537 959.984C319.465 957.68 317.929 954.608 317.929 950.768C317.929 947.312 318.601 944.72 319.945 942.992C321.289 941.072 323.497 938.96 326.569 936.656C329.449 934.544 331.849 932.624 333.769 930.896C335.881 929.168 337.993 926.864 340.105 923.984C343.369 919.568 345.673 912.656 347.017 903.248C348.361 893.84 349.033 882.32 349.033 868.688V840.752C349.033 827.12 348.361 815.6 347.017 806.192C345.673 796.784 343.369 789.872 340.105 785.456C337.417 782 333.385 777.584 328.009 772.208C325.321 769.52 323.401 767.504 322.249 766.16C321.289 764.624 320.809 762.512 320.809 759.824C320.809 755.6 322.345 752.24 325.417 749.744C328.681 747.248 333.001 746 338.377 746C340.489 746 348.457 747.152 362.281 749.456C379.945 752.336 390.793 753.776 394.825 753.776C400.009 753.776 404.905 753.296 409.513 752.336C414.121 751.376 420.073 749.936 427.369 748.016C435.433 745.904 441.769 744.368 446.377 743.408C451.177 742.448 456.361 741.968 461.929 741.968C470.377 741.968 478.537 743.888 486.409 747.728C494.281 751.568 500.713 756.848 505.705 763.568C510.697 770.288 513.193 777.776 513.193 786.032C513.193 803.888 507.049 819.632 494.761 833.264C482.473 846.704 460.969 856.784 430.249 863.504C442.729 863.888 452.713 866.864 460.201 872.432C467.689 878 473.161 884.336 476.617 891.44C480.265 898.352 483.721 907.088 486.985 917.648C489.289 925.136 491.305 930.608 493.033 934.064C494.953 937.328 497.449 938.96 500.521 938.96C505.705 938.96 508.297 935.6 508.297 928.88C508.297 919.088 503.113 903.536 492.745 882.224C491.017 878.768 490.153 875.216 490.153 871.568C490.153 865.616 492.457 860.624 497.065 856.592C501.865 852.56 508.681 850.544 517.513 850.544C527.305 850.544 534.985 853.616 540.553 859.76C546.121 865.904 548.905 874.736 548.905 886.256C548.905 914.096 543.817 933.968 533.641 945.872C523.657 957.776 509.449 963.728 491.017 963.728ZM391.081 840.752C391.081 843.248 391.465 844.88 392.233 845.648C393.193 846.416 394.729 846.608 396.841 846.224C417.001 843.344 434.089 837.584 448.105 828.944C462.313 820.304 469.417 809.168 469.417 795.536C469.417 789.008 466.825 783.92 461.641 780.272C456.457 776.432 449.833 774.512 441.769 774.512C439.081 774.512 436.105 774.8 432.841 775.376C420.361 777.68 411.145 781.52 405.193 786.896C399.241 792.08 395.401 798.8 393.673 807.056C391.945 815.12 391.081 826.352 391.081 840.752Z" fill="white"/>
</svg>
